- 
http://www.Speed.Cd 
       
http://www.Speed.Cd      fast  and The Hottest Private Tracker on the net

(((--Submit for invite!!--)))

Please Seed back to make the speed Faster!!!

------------------nfo--------------------------
-[img]http://img192.imageshack.us/img192/6841/91lpl9bor9laa1500.jpg[/img]

[color=blue][size=5][b]Green.Lantern.2011.DVDRip.XVID.AC3.HQ.Hive-CM8[/b][/size][/color]


[b]Thx Hive


CM8 Doing It Right The First Time :D


Source: R1 DVD-R

Encode:
DVD had nice quality just a bit dark and slightly noise.
added brightness,sharpness,contrast,rgb,denoise
got very nice


Video: 720x304 @bitrate 1800 2pass
Audio: English AC3 5.1 @384
Sample: yes included
Subs: yes english in srt /subs[/b]


[url]http://www.imdb.com/title/tt1133985/[/url]


General
Complete name                    : Green.Lantern.2011.DVDRip.XVID.AC3.HQ.Hive-CM8.avi
Format                           : AVI
Format/Info                      : Audio Video Interleave
File size                        : 1.75 GiB
Duration                         : 1h 54mn
Overall bit rate                 : 2 194 Kbps
Writing application              : Nandub v1.0rc2
Writing library                  : Nandub build 1853/release

Video
ID                               : 0
Format                           : MPEG-4 Visual
Format profile                   : Advanced Simple@L5
Format settings, BVOP            : 2
Format settings, QPel            : Yes
Format settings, GMC             : No warppoints
Format settings, Matrix          : Default (H.263)
Muxing mode                      : Packed bitstream
Codec ID                         : XVID
Codec ID/Hint                    : XviD
Duration                         : 1h 54mn
Bit rate                         : 1 800 Kbps
Width                            : 720 pixels
Height                           : 304 pixels
Display aspect ratio             : 2.35:1
Frame rate                       : 23.976 fps
Color space                      : YUV
Chroma subsampling               : 4:2:0
Bit depth                        : 8 bits
Scan type                        : Progressive
Compression mode                 : Lossy
Bits/(Pixel*Frame)               : 0.343
Stream size                      : 1.43 GiB (82%)
Writing library                  : XviD 1.2.1 (UTC 2008-12-04)

Audio
ID                               : 1
Format                           : AC-3
Format/Info                      : Audio Coding 3
Mode extension                   : CM (complete main)
Codec ID                         : 2000
Duration                         : 1h 54mn
Bit rate mode                    : Constant
Bit rate                         : 384 Kbps
Channel(s)                       : 6 channels
Channel positions                : Front: L C R, Side: L R, LFE
Sampling rate                    : 48.0 KHz
Bit depth                        : 16 bits
Compression mode                 : Lossy
Stream size                      : 313 MiB (18%)
Alignment                        : Split accross interleaves
Interleave, duration             : 42 ms (1.00 video frame)
Interleave, preload duration     : 500 ms


Ryan Reynolds	... 	Hal Jordan / Green Lantern
Clancy Brown	... 	Parallax (voice)
Blake Lively	... 	Carol Ferris
Mark Strong	... 	Sinestro
Peter Sarsgaard	... 	Hector Hammond


A test pilot is granted a mystical green ring that bestows him with otherworldly powers, as well as membership into an intergalactic squadron tasked with keeping peace within the universe. 


[img]http://img98.imageshack.us/img98/1927/48687196.png[/img]
[img]http://img339.imageshack.us/img339/1822/grgggrgrrgrrgr.png[/img]
[img]http://img269.imageshack.us/img269/8973/grgggrrgrrgr.png[/img]
[img]http://img684.imageshack.us/img684/5757/grggrgrrgr.png[/img]
[img]http://img829.imageshack.us/img829/8764/grgri.png[/img]
[img]http://img844.imageshack.us/img844/5303/grgrgr.png[/img]
[img]http://img23.imageshack.us/img23/4986/grggggrrgrgrgrrgrrgr.png[/img]
[img]http://img600.imageshack.us/img600/4651/grgggrgrgrgrrgrrgr.png[/img]
[img]http://img831.imageshack.us/img831/5939/grgggrgrgrrgrrgr.png[/img]
[img]http://img535.imageshack.us/img535/2756/grggrrgr.png[/img]





Greetz

ViSiON,SiC,SANTi,3LT0N,YanKeeS,MAGNET,THC,T0XiC,LKRG,FANTASIA-PLAY,FANTASIA-M,BHRG,
D2U,WBZ,FLAWL3SS,NOVA,Vik,Rapeseed,SAFC,goldadvance,MEMORY100,scumbag,KaN1vE,Unevano,Pinnz,
Mr Hive,Wayne,cedrict wink,and all P2P groups


LOOKING FOR ANYTHING YOU WANT TO LOOK AND SOUND BETTER



CM8@hushmail.com